PathFileType	3	(X/Y/Z)	D:\minhoCalibration\240510\subject3_KPNP\preferred\preferred17.trc
DataRate	CameraRate	NumFrames	NumMarkers	Units	OrigDataRate	OrigDataStartFrame	OrigNumFrames
200.0	200.0	33	10	mm	200.0	181	120	
Frame#	Time	Left_Ankle_Outer1			Left_Ankle_Inner1			Left_Knee_Outer1			Left_Knee_Inner1			Left_Wrist1			Right_Wrist1			Right_Knee_Inner1			Right_Knee_Outer1			Right_Ankle_Inner1			Right_Ankle_Outer1			
		X1	Y1	Z1	X2	Y2	Z2	X3	Y3	Z3	X4	Y4	Z4	X5	Y5	Z5	X6	Y6	Z6	X7	Y7	Z7	X8	Y8	Z8	X9	Y9	Z9	X10	Y10	Z10	
181	0.895	-340.65536	83.58786	-543.84045	-395.75711	92.758247	-547.88574	-279.77167	499.30621	-395.96484	-385.83755	500.61203	-391.86752	-230.79179	869.04321	-566.2774	-581.86676	908.66754	-654.01239	-676.79193	458.93845	-661.6308	-741.75598	542.44019	-720.68622	-539.48999	247.47243	-1007.4147	-623.9743	287.94547	-1058.6823
182	0.9	-339.48648	84.157021	-543.35669	-394.45999	93.352821	-547.25226	-276.46906	499.69733	-396.18411	-382.27258	501.55002	-390.14197	-225.84482	871.03979	-565.26721	-579.91364	913.23639	-643.29767	-677.4314	462.8688	-643.24207	-745.1095	546.59277	-700.40491	-544.11664	263.15073	-996.77228	-630.32465	294.75439	-1045.6371
183	0.905	-338.22861	84.930931	-543.06329	-393.45728	94.291603	-546.76294	-272.88611	500.21057	-396.72244	-377.79123	502.16055	-389.06982	-221.48767	872.7724	-564.76147	-577.54749	917.2326	-633.16449	-677.19629	467.23248	-623.47351	-747.9519	550.81512	-678.81104	-548.55145	279.13507	-984.56213	-635.94794	309.93893	-1033.415
184	0.91	-337.23672	85.655876	-542.62933	-392.2998	95.438225	-546.32159	-269.29816	500.83447	-397.38171	-373.98495	503.06189	-388.03305	-217.08957	874.75928	-563.78253	-575.2738	922.39838	-621.94885	-676.02295	471.69656	-604.13507	-750.8114	555.83203	-657.1134	-552.95691	295.37775	-971.23016	-644.3205	323.29779	-1016.8512
185	0.915	-336.32578	86.53244	-542.29419	-391.52582	96.652222	-545.64081	-265.57388	501.5582	-398.30573	-369.69946	503.6813	-387.88892	-212.24451	876.57574	-564.19556	-572.18829	927.30139	-611.12634	-674.02661	476.40881	-584.57013	-753.07245	561.27045	-634.63611	-557.95532	311.57098	-956.87836	-650.60736	339.80353	-999.41327
186	0.92	-335.68509	87.439934	-541.89764	-390.71613	97.998024	-544.97144	-261.6795	502.29794	-399.41479	-365.76852	504.67163	-387.5899	-207.7655	878.2757	-565.06464	-569.0788	932.58655	-599.79016	-671.13422	481.27039	-565.0105	-755.11871	567.50067	-610.4007	-563.16064	327.51007	-941.55176	-656.25909	355.0813	-983.63733
187	0.925	-334.87921	88.518463	-541.41772	-389.97513	99.493492	-544.23657	-257.56274	503.25168	-400.8457	-361.66006	505.56253	-387.44736	-203.47441	879.79883	-566.50555	-564.89502	938.47198	-589.22461	-668.01019	486.76968	-545.57672	-756.19818	574.22174	-585.70959	-568.55713	343.28375	-925.34601	-662.30597	371.83463	-965.35205
188	0.93	-334.56476	89.587898	-540.73273	-389.30756	101.07664	-543.3819	-253.80751	504.07092	-402.09045	-357.47174	506.6427	-387.40585	-199.50464	881.02094	-569.07129	-560.58752	943.98267	-578.62219	-664.67725	492.87335	-525.94763	-756.50287	581.60974	-560.26385	-574.23663	358.8219	-908.34131	-667.88824	389.62015	-946.84247
189	0.935	-333.63235	90.982933	-540.5033	-388.71057	102.772	-542.45435	-249.79758	505.05429	-403.57529	-353.19061	508.05414	-387.56595	-194.85487	882.67621	-571.77039	-555.70123	949.76709	-568.3078	-661.00348	499.65808	-506.24924	-756.00323	589.85321	-534.26843	-580.66241	374.33557	-890.76971	-673.78107	407.61798	-927.09375
190	0.94	-333.09705	92.418159	-540.00769	-388.14487	104.54847	-541.48798	-245.66563	506.20334	-405.26886	-348.9361	509.59457	-387.61517	-190.06949	884.28741	-575.49518	-550.6897	956.18115	-557.7923	-657.27655	507.19946	-486.12958	-754.37463	598.87274	-507.93338	-587.20367	390.1109	-872.77368	-681.06091	424.79706	-906.31635
191	0.945	-332.5932	93.900658	-539.53625	-387.68384	106.61384	-540.4624	-241.62386	507.52777	-407.05008	-344.30579	511.36536	-387.82138	-186.5504	885.5899	-579.55743	-545.30811	962.1972	-548.0246	-653.52216	515.68817	-465.50769	-751.7334	609.01703	-481.73389	-594.01294	405.93326	-854.19379	-687.62878	443.7511	-885.36182
192	0.95	-332.27115	95.5634	-539.05341	-387.36111	108.64637	-539.34082	-237.30391	508.90833	-409.02597	-339.55042	512.72931	-388.65936	-182.96042	887.09949	-583.97101	-538.05682	969.04895	-538.64081	-649.56799	525.10724	-444.4136	-748.08795	620.45349	-455.82413	-601.14703	422.05817	-835.35669	-695.56091	461.04489	-863.36017
193	0.955	-331.99866	97.187286	-538.54797	-387.16168	110.90527	-538.12036	-232.85385	510.44946	-411.34991	-334.70999	514.80481	-388.7005	-178.86783	888.87616	-589.43207	-531.99963	975.30072	-529.71893	-645.23865	535.84302	-421.8143	-743.54767	633.36249	-430.70853	-607.9527	438.56485	-816.37256	-703.93347	479.13904	-840.28503
194	0.96	-332.13409	98.858955	-538.11975	-387.2222	113.00178	-536.69629	-228.27914	512.06647	-413.92694	-329.30847	517.15552	-388.79855	-177.2803	890.0744	-594.50562	-525.09546	982.28839	-521.28003	-640.55591	547.61884	-399.11389	-738.09064	646.76477	-405.94675	-616.69122	454.85605	-796.24591	-712.35822	497.29849	-816.58197
195	0.965	-332.12241	100.58019	-537.60107	-387.44345	115.29886	-535.1626	-223.64493	513.69012	-416.78928	-323.7706	519.36401	-389.01135	-174.46786	891.62555	-600.17255	-517.87793	988.88086	-513.8067	-635.21222	560.41022	-376.00494	-731.63068	660.51593	-381.21613	-625.07196	471.64529	-775.96051	-720.96826	515.02759	-791.96692
196	0.97	-332.56326	102.28999	-537.07867	-387.77075	117.67	-533.57422	-218.96326	515.34497	-420.11426	-317.9592	521.66138	-389.04688	-171.1055	893.23486	-606.37012	-510.93716	995.84473	-506.61557	-629.15271	574.13684	-353.02313	-724.20306	675.08087	-357.12283	-633.62964	488.80655	-755.10083	-730.08142	533.435	-765.41302
197	0.975	-333.05252	103.96596	-536.68005	-388.15866	119.88775	-531.95251	-214.24507	516.89471	-423.85062	-311.8093	523.85602	-389.18231	-169.61185	894.46637	-612.47729	-503.1535	1003.0325	-499.86795	-622.15906	588.47485	-329.73346	-715.88031	690.73199	-333.54446	-643.07141	505.54181	-733.43768	-739.9115	552.92847	-738.67383
198	0.98	-334.19257	105.46705	-535.92944	-388.81406	122.44701	-530.09296	-210.08617	518.19995	-428.02386	-305.60629	526.29059	-388.86862	-167.13612	895.85724	-619.07263	-495.89532	1009.9138	-493.74628	-614.20526	603.64368	-306.87128	-706.6134	707.2406	-310.56808	-652.7489	522.42657	-711.14825	-749.14307	569.68036	-712.41992
199	0.985	-334.6358	107.27453	-535.77386	-389.4487	124.62669	-528.17957	-205.3436	519.35376	-432.40439	-299.14117	528.4444	-388.96442	-165.72528	896.99261	-625.56946	-487.87372	1017.0431	-488.56189	-605.38757	619.45923	-284.62643	-696.18341	724.37305	-288.06085	-663.44489	538.73181	-687.51489	-758.11707	587.11115	-685.25629
200	0.99	-335.9931	108.70212	-535.02216	-390.26108	126.7832	-526.16461	-201.2925	520.34229	-436.8623	-292.5993	530.71368	-389.336	-164.17387	898.15369	-632.37103	-480.39627	1023.9053	-484.14081	-595.62732	635.92889	-263.06021	-684.52582	742.01331	-265.9534	-673.9137	554.95575	-663.63861	-768.06097	604.92999	-656.84644
201	0.995	-336.99057	110.23271	-534.64197	-391.12363	128.75298	-524.18604	-197.10568	521.33289	-441.81375	-285.72958	532.54291	-389.69595	-163.57071	899.04877	-638.85175	-473.12009	1030.8341	-480.10367	-584.69379	652.84314	-242.41933	-671.20129	760.50372	-244.88254	-684.45251	571.0238	-638.76105	-776.98914	623.34576	-626.48901
202	1	-337.84076	111.95862	-534.4007	-392.27417	130.8018	-521.98285	-193.18175	522.02173	-446.53699	-279.29477	534.32727	-390.11176	-163.15437	899.71857	-645.39661	-465.74869	1037.7041	-476.569	-572.78674	670.25659	-222.58853	-657.0506	779.61969	-223.83844	-694.78516	586.74347	-613.34473	-785.7887	640.60577	-597.32581
203	1.005	-339.4183	113.38184	-533.78656	-393.3219	132.61171	-519.86096	-189.89174	522.48395	-451.58557	-272.78125	535.71985	-391.00577	-163.1003	900.23224	-651.86768	-458.57587	1044.4713	-473.55292	-559.78888	688.1391	-203.54001	-641.57599	799.04248	-204.17526	-705.12573	602.4483	-587.18414	-794.3396	658.28326	-566.02606
204	1.01	-341.14108	114.68312	-533.24084	-394.44519	134.32407	-517.58972	-186.8593	522.81665	-456.59552	-266.54102	536.69452	-392.38367	-163.44356	900.84686	-658.18695	-451.32516	1051.2032	-471.12381	-546.24872	705.93042	-186.65479	-624.80902	819.30975	-185.19907	-715.58356	618.11444	-559.88245	-802.16852	677.01202	-533.23572
205	1.015	-342.99329	115.88132	-532.69751	-395.71243	136.05904	-515.24731	-184.28424	522.90741	-461.47058	-260.88113	537.45471	-393.12106	-164.06833	901.3913	-664.3631	-444.52136	1057.5677	-469.17538	-531.4751	724.18555	-170.51225	-606.59381	838.86121	-168.29442	-726.2074	633.41827	-531.56793	-809.34302	694.36224	-501.0683
206	1.02	-344.86313	117.22182	-532.1203	-396.84875	137.45438	-512.69067	-182.00687	522.98157	-466.12048	-255.106	537.87842	-394.79352	-165.24228	901.62946	-670.49036	-437.90237	1064.311	-467.33789	-516.20679	742.28986	-155.41376	-587.64435	858.89105	-151.95064	-736.31555	648.86053	-501.93387	-815.78461	712.31079	-467.77988
207	1.025	-346.89514	118.50759	-531.46887	-398.41125	138.97302	-510.41113	-180.76115	522.57855	-470.41141	-250.16898	538.66467	-395.19806	-166.70596	902.03986	-676.5257	-431.40149	1070.7571	-465.90762	-500.2504	760.435	-141.38693	-567.13605	878.99402	-137.48106	-746.14514	664.32922	-470.9292	-821.95154	728.61865	-433.37802
208	1.03	-348.81415	119.65313	-530.96985	-399.78033	140.48106	-508.31134	-179.36899	522.41138	-474.42361	-245.55266	538.69153	-396.49335	-168.53288	902.24738	-682.30298	-425.31412	1076.5996	-465.17816	-483.9046	778.52502	-128.85602	-546.10333	898.38	-124.94308	-755.2345	679.69122	-438.00577	-827.21997	747.13397	-397.0715
209	1.035	-351.16315	120.50818	-530.20959	-401.19397	141.89536	-506.48825	-178.19673	522.07861	-478.01294	-241.43716	538.85553	-397.45105	-170.521	902.67615	-687.97797	-418.55472	1082.7103	-464.36581	-467.17722	796.38477	-117.62241	-524.67938	917.25995	-113.83885	-763.84314	695.46313	-403.56735	-831.22632	765.54956	-358.93567
210	1.04	-354.0657	120.87399	-528.80402	-402.49524	143.08798	-504.80939	-177.4077	521.81317	-481.03204	-238.08203	539.06635	-398.16537	-172.82838	902.72351	-693.41034	-413.72485	1087.8164	-464.50021	-450.03052	814.0271	-107.95474	-502.76221	935.62494	-104.95586	-771.4682	710.93365	-367.31705	-833.2464	784.32166	-319.61322
211	1.045	-354.79483	122.3362	-528.96179	-403.66559	144.11053	-503.30591	-177.0567	521.42584	-483.52451	-234.96243	539.21564	-399.01614	-176.17	902.30035	-698.18231	-408.39233	1092.7668	-464.59082	-433.17081	831.0141	-99.599304	-479.8779	952.43707	-98.485992	-777.39081	726.91754	-329.36249	-832.78918	801.77606	-281.55746
212	1.05	-356.92981	122.63579	-527.87604	-404.68167	145.00365	-501.96521	-176.73346	521.23724	-485.62131	-232.15985	539.39435	-399.97681	-179.31062	901.96283	-703.00525	-403.37729	1097.1854	-465.28052	-416.14197	847.68475	-92.423164	-457.60449	968.82977	-93.350121	-781.64709	743.03052	-289.42935	-831.06934	821.1366	-240.15579
213	1.055	-358.17044	122.9732	-527.31281	-405.40344	145.7652	-500.70679	-176.60086	520.99316	-487.05817	-230.77692	539.89008	-399.44754	-182.72005	901.34442	-707.60547	-398.46457	1101.8402	-465.1301	-399.87946	863.57117	-86.490089	-435.77753	984.2998	-89.875931	-785.09174	760.69904	-245.77718	-827.59363	842.16315	-195.50093
